<?xml version="1.0" encoding="iso-8859-1"?>
<!-- Generator: Adobe Illustrator 19.1.0, SVG Export Plug-In . SVG Version: 6.00 Build 0)  -->
<svg version="1.1" id="Capa_1" xmlns="http://www.w3.org/2000/svg" xmlns:xlink="http://www.w3.org/1999/xlink" x="0px" y="0px"
	 viewBox="0 0 512 512" style="enable-background:new 0 0 512 512;" xml:space="preserve">
<g>
	<g>
		<path style="fill:#5C546A;" d="M405.859,66.555C404.351,64.93,402.226,64,400,64H96c-2.227,0-4.352,0.93-5.859,2.555
			c-1.516,1.633-2.281,3.82-2.117,6.039l30.883,417.211C119.852,502.25,130.359,512,142.836,512h210.328
			c12.477,0,22.984-9.75,23.93-22.203l30.883-417.203C408.14,70.375,407.375,68.187,405.859,66.555z"/>
	</g>
	<g>
		<path style="fill:#8B8996;" d="M400,64H248v448h105.164c12.477,0,22.984-9.75,23.93-22.203l30.883-417.203
			c0.164-2.219-0.602-4.406-2.117-6.039C404.351,64.93,402.226,64,400,64z"/>
	</g>
	<g>
		<polygon style="fill:#C27B58;" points="114.035,424 381.964,424 402.098,152 93.901,152 		"/>
	</g>
	<g>
		<polygon style="fill:#9F6459;" points="248,152 93.901,152 114.035,424 248,424 		"/>
	</g>
	<g>
		<path style="fill:#D8DCE1;" d="M88,56l25.009-44.348C117.346,4.423,125.158,0,133.589,0h228.823c8.43,0,16.242,4.423,20.58,11.652
			L408,56"/>
	</g>
	<g>
		<circle style="fill:#FFD200;" cx="248" cy="288" r="72"/>
	</g>
	<g>
		<path style="fill:#FF9600;" d="M176,288c0,39.764,32.235,72,72,72V216C208.235,216,176,248.235,176,288z"/>
	</g>
	<g>
		<path style="fill:#B9BBC1;" d="M248,0H133.588c-8.43,0-16.242,4.423-20.58,11.652L88,56h160V0z"/>
	</g>
	<g>
		<path style="fill:#8B8996;" d="M424,80H88c-8.837,0-16-7.163-16-16v0c0-8.837,7.163-16,16-16h336c8.837,0,16,7.163,16,16v0
			C440,72.837,432.836,80,424,80z"/>
	</g>
	<g>
		<path style="fill:#B9BBC1;" d="M424,48H248v32h176c8.836,0,16-7.164,16-16C440,55.163,432.836,48,424,48z"/>
	</g>
</g>
<g>
</g>
<g>
</g>
<g>
</g>
<g>
</g>
<g>
</g>
<g>
</g>
<g>
</g>
<g>
</g>
<g>
</g>
<g>
</g>
<g>
</g>
<g>
</g>
<g>
</g>
<g>
</g>
<g>
</g>
</svg>
