<?xml version="1.0" encoding="utf-8"?>
<!-- Generator: Adobe Illustrator 19.1.0, SVG Export Plug-In . SVG Version: 6.00 Build 0)  -->
<svg version="1.1" id="Layer_1" xmlns="http://www.w3.org/2000/svg" xmlns:xlink="http://www.w3.org/1999/xlink" x="0px" y="0px"
	 viewBox="0 0 105.2 28.1" style="enable-background:new 0 0 105.2 28.1;" xml:space="preserve">
<style type="text/css">
	.st0{fill:#FFFFFF;}
</style>
<g>
	<g>
		<path class="st0" d="M29.3,9.9c-0.6,0.6-7.5,7.6-9.2,9.2c-1.8,1.7-3,2.2-3.8,2.2c-1.4,0-2-1-0.8-3.2c0.3-0.5,1.2-2.3,2.5-4.6
			c-1.4-0.1-3.6-0.1-5.3-0.2c-0.1,0.2-0.2,0.3-0.2,0.4c-3.6,6.3-6.7,7.5-9.8,7.5c-4.9,0-2.6-8.4,7.6-9.6C11.9,8.4,16,0.6,16,0.6h3.3
			c0,0-3.7,7.1-5.8,11c2.5,0,4.4,0,5.4,0c2.7-5,5.9-11,5.9-11h3.3c0,0-6.6,12.4-7.5,14.1c-0.3,0.6-0.9,1.7-0.7,1.9
			c0.2,0.2,0.7-0.3,1.2-0.7c0.8-0.7,7.2-6.7,7.9-7.5C29.5,7.8,29.5,9.7,29.3,9.9z M9.1,13.5C3.6,14.5,1,19,2.9,19
			C4.2,19,6.5,17.7,9.1,13.5z"/>
		<path class="st0" d="M36.6,9.9c-0.6,0.6-7.5,7.6-9.2,9.2c-1.8,1.7-3,2.2-3.8,2.2c-1.4,0-2-1-0.8-3.2c0.9-1.6,5.8-10.7,5.8-10.7
			l3.3,0c0,0-3,5.6-3.9,7.3c-0.3,0.6-0.9,1.7-0.7,1.9c0.2,0.2,0.7-0.3,1.2-0.7c0.8-0.7,7.2-6.7,7.9-7.5C36.8,7.8,36.9,9.7,36.6,9.9z
			 M30,2.3C30.6,1.1,32.1,0,33.4,0c1.3,0,1.9,1.1,1.3,2.3c-0.6,1.3-2.1,2.3-3.4,2.3C30.1,4.6,29.5,3.6,30,2.3z"/>
		<path class="st0" d="M41.7,15.6c-2.2,3.4-5.5,4.9-7.3,4.9c-1.6,0-2.3-1-2.5-2.1l-5.2,9.7h-3.3L34.5,7.4h3.3L37,8.8
			c1.2-1.2,2.7-2.2,4.1-2.2C44,6.6,45.5,9.8,41.7,15.6z M39.6,8.9c-1.1,0-3.1,1.9-4.4,4.1c-1.4,2.3-1.6,4.1-0.5,4.1
			c1.1,0,3-1.8,4.4-4.1C40.5,10.8,40.7,8.9,39.6,8.9z"/>
	</g>
	<g>
		<path class="st0" d="M47.1,8.2c0,0-0.9-1.1-0.9-2.6V4.3c0-2.2,1.8-4,4-4c2.2,0,4,1.8,4,4v2.6L52.5,7V4.3c0-1.3-1.1-2.4-2.4-2.4
			c-1.3,0-2.4,1.1-2.4,2.4v1.4c0,0.9,0.5,1.5,0.5,1.5l4.8,5.8c0,0,0.9,1.1,0.9,2.6v2c0,2.2-1.8,4-4,4c-2.2,0-4-1.8-4-4v-3l1.6-0.2
			v3.2c0,1.3,1.1,2.4,2.4,2.4c1.3,0,2.4-1.1,2.4-2.4v-2c0-0.9-0.6-1.6-0.6-1.6L47.1,8.2z"/>
		<path class="st0" d="M61.3,12.2v9h-1.6V0.6h3.5c2.3,0,4.3,1.9,4.3,4.3v3.1c0,2.3-1.9,4.3-4.3,4.3H61.3z M63.2,10.6
			c1.5,0,2.7-1.2,2.7-2.7V4.9c0-1.5-1.2-2.7-2.7-2.7h-1.9v8.4H63.2z"/>
		<path class="st0" d="M80,21.1h-1.6l-0.8-5.3h-4.2l-0.8,5.3h-1.6l3.1-20.5h2.7L80,21.1z M73.7,14.3h3.7L75.6,2.4h-0.1L73.7,14.3z"
			/>
		<path class="st0" d="M91.2,7.5V4.3c0-1.3-1.1-2.4-2.4-2.4s-2.4,1.1-2.4,2.4v13.2c0,1.3,1.1,2.4,2.4,2.4s2.4-1.1,2.4-2.4v-2.8h1.6
			v2.8c0,2.2-1.8,4-4,4s-4-1.8-4-4V4.3c0-2.2,1.8-4,4-4s4,1.8,4,4v3L91.2,7.5z"/>
		<path class="st0" d="M99.9,2.2v7.9h3.7v1.6h-3.7v7.9h5.2v1.6h-6.8V0.6h6.6v1.6H99.9z"/>
	</g>
</g>
</svg>
