<?xml version="1.0" encoding="iso-8859-1"?>
<!-- Generator: Adobe Illustrator 16.0.0, SVG Export Plug-In . SVG Version: 6.00 Build 0)  -->
<!DOCTYPE svg PUBLIC "-//W3C//DTD SVG 1.1//EN" "http://www.w3.org/Graphics/SVG/1.1/DTD/svg11.dtd">
<svg xmlns="http://www.w3.org/2000/svg" xmlns:xlink="http://www.w3.org/1999/xlink" version="1.1" id="Capa_1" x="0px" y="0px" width="512px" height="512px" viewBox="0 0 895.861 895.861" style="enable-background:new 0 0 895.861 895.861;" xml:space="preserve">
<g>
	<path d="M447.489,316.615c76.464-37.773,146.685-21.319,197.597,45.089c13.983,18.254,23.906,39.61,36.816,58.804   c15.744,23.407,31.336,47.148,49.457,68.677c19.383,23.023,46.236,31.241,76.271,29.785c37.312-1.801,55.701-20.533,56.467-58.498   c0.154-8.705,0.039-17.363,0.039-26.576c44.592,33.779,41.871,99.42-6.244,132.865c-15.555,10.803-33.941,19.307-52.291,23.904   c-85.736,21.511-168.445,13.045-246.213-30.742c-44.284-24.939-72.098-56.908-110.022-124.227   c-5.133,8.122-9.921,14.979-13.906,22.286C386.655,546.92,308.217,589.729,210.472,600.11   c-47.618,5.058-95.178,1.532-140.517-16.646C34.27,569.193,9.351,545.501,1.727,506.272c-5.919-30.437,3.026-51.399,32.333-71.57   c0,12.144-0.651,23.473,0.115,34.697c1.916,27.871,17.89,44.843,45.434,48.634c38.922,5.383,72.136-6.589,95.466-37.964   c20.649-27.765,38.884-57.454,56.391-87.373c24.25-41.393,56.391-72.979,101.557-90.562   C373.477,286.389,411.249,293.323,447.489,316.615" fill="#FFFFFF"/>
</g>
<g>
</g>
<g>
</g>
<g>
</g>
<g>
</g>
<g>
</g>
<g>
</g>
<g>
</g>
<g>
</g>
<g>
</g>
<g>
</g>
<g>
</g>
<g>
</g>
<g>
</g>
<g>
</g>
<g>
</g>
</svg>
