<?xml version="1.0" encoding="utf-8"?>
<!-- Generator: Adobe Illustrator 15.0.0, SVG Export Plug-In . SVG Version: 6.00 Build 0)  -->
<!DOCTYPE svg PUBLIC "-//W3C//DTD SVG 1.1//EN" "http://www.w3.org/Graphics/SVG/1.1/DTD/svg11.dtd">
<svg version="1.1" id="Capa_1" xmlns="http://www.w3.org/2000/svg" xmlns:xlink="http://www.w3.org/1999/xlink" x="0px" y="0px"
	 width="600px" height="600px" viewBox="0 0 600 600" enable-background="new 0 0 600 600" xml:space="preserve">
<g>
	<path fill="#DC7D49" d="M500,423.139C500,465.587,465.587,500,423.138,500H176.862C134.411,500,100,465.587,100,423.139V176.862
		C100,134.413,134.411,100,176.862,100h246.275C465.587,100,500,134.413,500,176.862V423.139z"/>
	<path fill="#D3733E" d="M500,423.139V321.355l-119.163-92.242l-19.418,148.315l-138.583,16.636L355.062,500h68.075
		C465.587,500,500,465.587,500,423.139z"/>
	<g>
		<path fill="#4D3D4D" d="M301.397,196.926c-63.086,0-114.227,51.14-114.227,114.226c0,63.088,51.141,114.226,114.227,114.226
			c63.087,0,114.227-51.138,114.227-114.226C415.624,248.066,364.484,196.926,301.397,196.926z M301.397,326.761
			c-8.621,0-15.61-6.987-15.61-15.609c0-8.619,6.989-15.609,15.61-15.609s15.609,6.99,15.609,15.609
			C317.007,319.773,310.019,326.761,301.397,326.761z"/>
		<circle fill="none" cx="301.397" cy="311.152" r="15.609"/>
		<path fill="#736573" d="M317.6,285.744l11.139-85.5c-8.763-2.153-17.914-3.317-27.341-3.317c-9.218,0-18.169,1.122-26.755,3.182
			l10.553,85.636H317.6z"/>
		<path fill="#736573" d="M271.235,318.964l-67.294,51.784c9.482,15.473,22.542,28.514,38.034,37.971l52.174-66.842L271.235,318.964
			z"/>
		<path fill="#736573" d="M321.322,295.466l65.905-59.644c-3.578-4.075-7.441-7.889-11.561-11.419l-60.863,64.544L321.322,295.466z"
			/>
		<path fill="#9F4456" d="M301.397,270.318c-22.552,0-40.834,18.279-40.834,40.833c0,22.557,18.283,40.836,40.834,40.836
			s40.834-18.279,40.834-40.836C342.231,288.597,323.949,270.318,301.397,270.318z M301.397,326.761
			c-8.621,0-15.61-6.987-15.61-15.609c0-8.619,6.989-15.609,15.61-15.609s15.609,6.99,15.609,15.609
			C317.007,319.773,310.019,326.761,301.397,326.761z"/>
	</g>
</g>
</svg>
